<!DOCTYPE svg PUBLIC "-//W3C//DTD SVG 1.1//EN" "http://www.w3.org/Graphics/SVG/1.1/DTD/svg11.dtd">
<!-- Uploaded to: SVG Repo, www.svgrepo.com, Transformed by: SVG Repo Mixer Tools -->
<svg width="800px" height="800px" viewBox="0 0 100 100" xmlns="http://www.w3.org/2000/svg" version="1.1" fill="#000000">
<g id="SVGRepo_bgCarrier" stroke-width="0"/>
<g id="SVGRepo_tracerCarrier" stroke-linecap="round" stroke-linejoin="round"/>
<g id="SVGRepo_iconCarrier"> <g style="fill:#0075ff"> <path d="M 5,56 C 4,25 7,21 18,21 c 7,0 41,-10e-7 41,-10e-7 l 0,-18 23,24 -22,22 0,-17 -45,0 0,25 c 0,0 -4,0 -10,0 z"/> <path d="m 95,45 c 0,23 2,36 -13,36 -1,0 -42,0 -42,-0 L 40,98 18,75 40,53 39,71 l 45,0 0,-26 c 0,0 9,0 10,0 z"/> </g> </g>
</svg>